HIERARCHY
ROOT Hips
{
	OFFSET 0.00000 0.00000 0.00000
	CHANNELS 6 Xposition Yposition Zposition Zrotation Yrotation Xrotation 
	JOINT LHipJoint
	{
		OFFSET 0 0 0
		CHANNELS 3 Zrotation Yrotation Xrotation
		JOINT LeftUpLeg
		{
			OFFSET 1.26600 -1.82114 0.91038
			CHANNELS 3 Zrotation Yrotation Xrotation
			JOINT LeftLeg
			{
				OFFSET 2.50076 -6.87080 0.00000
				CHANNELS 3 Zrotation Yrotation Xrotation
				JOINT LeftFoot
				{
					OFFSET 2.57364 -7.07102 0.00000
					CHANNELS 3 Zrotation Yrotation Xrotation
					JOINT LeftToeBase
					{
						OFFSET 0.13572 -0.37290 1.97004
						CHANNELS 3 Zrotation Yrotation Xrotation
						End Site
						{
							OFFSET 0.00000 -0.00000 1.01383
						}
					}
				}
			}
		}
	}
	JOINT RHipJoint
	{
		OFFSET 0 0 0
		CHANNELS 3 Zrotation Yrotation Xrotation
		JOINT RightUpLeg
		{
			OFFSET -1.20803 -1.82114 0.91038
			CHANNELS 3 Zrotation Yrotation Xrotation
			JOINT RightLeg
			{
				OFFSET -2.54916 -7.00377 0.00000
				CHANNELS 3 Zrotation Yrotation Xrotation
				JOINT RightFoot
				{
					OFFSET -2.56374 -7.04382 0.00000
					CHANNELS 3 Zrotation Yrotation Xrotation
					JOINT RightToeBase
					{
						OFFSET -0.23520 -0.64621 2.09921
						CHANNELS 3 Zrotation Yrotation Xrotation
						End Site
						{
							OFFSET -0.00000 -0.00000 1.10065
						}
					}
				}
			}
		}
	}
	JOINT LowerBack
	{
		OFFSET 0 0 0
		CHANNELS 3 Zrotation Yrotation Xrotation
		JOINT Spine
		{
			OFFSET 0.05492 2.10797 -0.12074
			CHANNELS 3 Zrotation Yrotation Xrotation
			JOINT Spine1
			{
				OFFSET 0.04577 2.11592 -0.04483
				CHANNELS 3 Zrotation Yrotation Xrotation
				JOINT Neck
				{
					OFFSET 0 0 0
					CHANNELS 3 Zrotation Yrotation Xrotation
					JOINT Neck1
					{
						OFFSET -0.10759 1.80167 0.15770
						CHANNELS 3 Zrotation Yrotation Xrotation
						JOINT Head
						{
							OFFSET 0.09237 1.77509 -0.40848
							CHANNELS 3 Zrotation Yrotation Xrotation
							End Site
							{
								OFFSET 0.03805 1.84093 -0.15754
							}
						}
					}
				}
				JOINT LeftShoulder
				{
					OFFSET 0 0 0
					CHANNELS 3 Zrotation Yrotation Xrotation
					JOINT LeftArm
					{
						OFFSET 3.42372 1.09575 -0.28209
						CHANNELS 3 Zrotation Yrotation Xrotation
						JOINT LeftForeArm
						{
							OFFSET 4.95681 -0.00000 0.00000
							CHANNELS 3 Zrotation Yrotation Xrotation
							JOINT LeftHand
							{
								OFFSET 3.40915 -0.00000 0.00000
								CHANNELS 3 Zrotation Yrotation Xrotation
								JOINT LeftFingerBase
								{
									OFFSET 0 0 0
									CHANNELS 3 Zrotation Yrotation Xrotation
									JOINT LeftHandIndex1
									{
										OFFSET 0.61640 -0.00000 0.00000
										CHANNELS 3 Zrotation Yrotation Xrotation
										End Site
										{
											OFFSET 0.49696 -0.00000 0.00000
										}
									}
								}
								JOINT LThumb
								{
									OFFSET 0 0 0
									CHANNELS 3 Zrotation Yrotation Xrotation
									End Site
									{
										OFFSET 0.50455 -0.00000 0.50455
									}
								}
							}
						}
					}
				}
				JOINT RightShoulder
				{
					OFFSET 0 0 0
					CHANNELS 3 Zrotation Yrotation Xrotation
					JOINT RightArm
					{
						OFFSET -3.24731 1.15872 -0.32221
						CHANNELS 3 Zrotation Yrotation Xrotation
						JOINT RightForeArm
						{
							OFFSET -5.35200 -0.00000 0.00000
							CHANNELS 3 Zrotation Yrotation Xrotation
							JOINT RightHand
							{
								OFFSET -3.43721 -0.00000 -0.00000
								CHANNELS 3 Zrotation Yrotation Xrotation
								JOINT RightFingerBase
								{
									OFFSET 0 0 0
									CHANNELS 3 Zrotation Yrotation Xrotation
									JOINT RightHandIndex1
									{
										OFFSET -0.72009 -0.00000 0.00000
										CHANNELS 3 Zrotation Yrotation Xrotation
										End Site
										{
											OFFSET -0.58056 -0.00000 0.00000
										}
									}
								}
								JOINT RThumb
								{
									OFFSET 0 0 0
									CHANNELS 3 Zrotation Yrotation Xrotation
									End Site
									{
										OFFSET -0.58942 -0.00000 0.58942
									}
								}
							}
						}
					}
				}
			}
		}
	}
}
MOTION
Frames: 12
Frame Time: .0083333
8.6190 17.8966 20.7520 -174.3110 -6.5146 -547.5120 0.0000 0.0000 0.0000 -16.9412 2.0088 19.7698 0.0019 0.2808 0.7715 0.1246 -3.9434 -6.4458 0.0042 -0.4208 -1.1562 0.0000 0.0000 0.0000 12.9595 1.3517 -83.1709 -26.1946 -19.0540 108.3906 -0.1376 7.2377 -7.7829 -0.0081 0.5822 -1.5998 -2.2785 1.1870 13.7651 2.3158 0.5500 6.1755 3.6349 -0.1346 -1.2685 -6.8188 2.8846 -9.7841 3.7884 -2.1167 42.4242 2.0037 -3.4595 17.2138 -0.0000 -0.0000 0.0000 -85.5937 4.2586 21.5180 17.5593 -27.5891 -4.3432 -0.0000 0.0000 -4.2657 21.9678 19.7662 7.7680 -7.1250 0.0000 -0.0000 -6.4687 51.0484 -0.9674 -0.0000 -0.0000 0.0000 87.4102 -4.9957 7.9320 -14.3707 23.2621 -2.9729 0.0000 -0.0000 -5.4757 -18.7156 11.7782 -3.9559 7.1250 -0.0000 -0.0000 5.9066 -17.6039 3.8643
8.6221 17.8722 20.6949 -174.5670 -6.5092 -547.4030 0.0000 0.0000 0.0000 -17.3424 1.6033 18.7268 0.0315 1.1464 3.1516 0.1966 -4.3107 -7.9869 0.0039 -0.4048 -1.1123 0.0000 0.0000 0.0000 12.6724 1.4032 -82.9318 -26.1801 -19.0585 108.3464 -0.1349 7.2057 -7.7231 -0.0077 0.5649 -1.5523 -2.4075 1.1582 13.7455 2.2455 0.4958 6.1845 3.6421 -0.1627 -1.2449 -6.9937 2.8884 -9.8489 3.8866 -2.0888 42.4138 2.0856 -3.4604 17.2240 -0.0000 -0.0000 0.0000 -85.6476 4.1862 21.5479 17.4585 -27.4582 -4.2966 -0.0000 0.0000 -3.9589 22.3942 20.4199 8.1810 -7.1250 0.0000 -0.0000 -6.2393 51.8071 -1.0492 -0.0000 -0.0000 0.0000 87.3379 -4.8172 8.2888 -14.6082 23.5975 -3.0674 0.0000 -0.0000 -5.6555 -18.6011 11.6730 -3.8955 7.1250 -0.0000 -0.0000 5.9852 -17.7228 3.9006
8.6309 17.8626 20.6423 -174.5810 -6.2554 -547.1310 0.0000 0.0000 0.0000 -17.3686 1.5756 18.1315 0.0542 1.5024 4.1323 0.2528 -4.4767 -9.0071 0.0059 -0.4961 -1.3632 0.0000 0.0000 0.0000 12.7050 1.8845 -82.7567 -26.1393 -19.0713 108.2212 -0.1161 6.9262 -7.2674 -0.0015 0.2491 -0.6845 -2.4353 1.1802 13.7556 2.2874 0.5484 6.0157 3.6949 -0.1211 -1.4320 -7.2005 2.9425 -9.8665 4.0499 -2.0730 42.5258 2.1976 -3.4850 17.2940 0.0000 -0.0000 0.0000 -85.7788 4.2060 21.2849 17.3328 -27.2944 -4.2388 -0.0000 0.0000 -3.2414 22.7399 21.0078 8.5451 -7.1250 0.0000 -0.0000 -6.0723 52.4855 -1.1221 0.0000 -0.0000 0.0000 87.1869 -4.8402 8.7104 -14.8448 23.9295 -3.1627 0.0000 -0.0000 -5.8499 -18.6354 11.6832 -3.9066 7.1250 -0.0000 -0.0000 5.9613 -17.7096 3.8866
8.6384 17.8648 20.5922 -174.4320 -5.8805 -546.8510 0.0000 0.0000 0.0000 -17.2154 1.5891 17.3575 0.0901 1.9359 5.3285 0.3084 -4.6236 -9.9184 0.0170 -0.8429 -2.3167 0.0000 0.0000 0.0000 12.9129 2.4512 -82.5356 -26.0839 -19.0884 108.0519 -0.0911 6.9126 -6.7943 -0.0029 0.3483 -0.9569 -2.2619 1.2376 13.6708 2.3647 0.6606 5.9358 3.6609 -0.0569 -1.4784 -7.3185 2.9613 -9.9631 4.0651 -2.0145 42.5700 2.2357 -3.4795 17.3403 -0.0000 -0.0000 0.0000 -85.8274 3.9439 21.5533 17.0609 -26.9380 -4.1149 -0.0000 0.0000 -3.3637 22.5601 20.6649 8.3407 -7.1250 0.0000 -0.0000 -6.1476 52.0935 -1.0769 -0.0000 -0.0000 0.0000 87.0210 -4.8233 9.3831 -15.1825 24.3997 -3.3010 0.0000 -0.0000 -6.3875 -19.0111 11.6218 -3.9705 7.1250 -0.0000 -0.0000 5.6976 -17.7437 3.7086
8.6447 17.8604 20.5375 -174.1170 -5.5573 -546.7530 0.0000 0.0000 0.0000 -16.9077 1.5725 16.7231 0.1366 2.3822 6.5630 0.3484 -4.5713 -10.5188 0.0385 -1.2664 -3.4821 0.0000 0.0000 0.0000 13.3214 2.8981 -81.9855 -26.0140 -19.1098 107.8382 -0.0807 7.2265 -6.7494 -0.0014 0.2415 -0.6636 -1.9603 1.2870 13.6243 2.5429 0.7529 5.9796 3.6631 -0.0168 -1.4130 -7.4430 2.9386 -9.9594 3.9820 -1.9114 42.4180 2.2404 -3.4468 17.2422 -0.0000 0.0000 0.0000 -85.9793 3.6528 22.1190 16.8119 -26.6091 -4.0027 -0.0000 0.0000 -4.0277 22.5604 20.2836 8.1956 -7.1250 0.0000 -0.0000 -6.0319 51.6934 -0.9973 -0.0000 0.0000 0.0000 86.7332 -4.6441 10.1011 -15.4902 24.8245 -3.4291 0.0000 -0.0000 -6.9313 -19.1618 11.5593 -3.9831 7.1250 -0.0000 -0.0000 5.5910 -17.7972 3.6319
8.6524 17.8421 20.4787 -174.0180 -5.3923 -546.6460 0.0000 0.0000 0.0000 -16.8337 1.4866 16.2798 0.1810 2.7399 7.5555 0.3790 -4.7658 -10.9725 0.0110 -0.6768 -1.8600 0.0000 0.0000 0.0000 13.4811 3.1936 -81.4119 -25.9581 -19.1267 107.6677 -0.0742 7.6054 -6.8246 -0.0106 -0.6633 1.8227 -1.9295 1.3034 13.6149 2.6947 0.7681 6.0213 3.8032 -0.0178 -1.3665 -7.5585 2.9184 -10.0893 3.8600 -1.8033 42.3674 2.2256 -3.4224 17.2374 -0.0000 0.0000 0.0000 -86.3745 3.6560 21.8405 16.9008 -26.7268 -4.0426 -0.0000 0.0000 -3.6475 23.5494 20.8156 8.8040 -7.1250 0.0000 -0.0000 -5.1940 52.4309 -0.9521 -0.0000 0.0000 0.0000 86.4273 -4.3450 10.5783 -15.6968 25.1078 -3.5163 0.0000 -0.0000 -7.0826 -18.9366 11.6566 -3.9654 7.1250 -0.0000 -0.0000 5.7502 -17.7133 3.7470
8.6590 17.8197 20.4167 -174.1120 -5.2044 -546.4440 0.0000 0.0000 0.0000 -16.9761 1.4306 15.7612 0.2373 3.1349 8.6546 0.4282 -5.2700 -11.6804 0.0009 0.1972 0.5418 0.0000 0.0000 0.0000 13.3605 3.5270 -81.0695 -25.9295 -19.1353 107.5803 -0.0591 7.9407 -6.7314 -0.0203 -0.9191 2.5261 -1.9177 1.3176 13.5679 2.6554 0.7910 6.0139 3.7517 -0.0045 -1.3504 -7.4436 2.9323 -10.3548 3.6830 -1.7166 42.4805 2.1382 -3.3907 17.3634 0.0000 -0.0000 0.0000 -86.5178 3.6984 21.6636 17.0089 -26.8696 -4.0914 -0.0000 0.0000 -3.4345 23.9350 20.6775 8.9077 -7.1250 0.0000 -0.0000 -4.7626 52.3553 -0.8639 0.0000 -0.0000 0.0000 86.3864 -4.1197 11.0228 -15.9252 25.4192 -3.6138 0.0000 -0.0000 -7.2550 -19.2202 11.6386 -4.0231 7.1250 -0.0000 -0.0000 5.5515 -17.7094 3.6168
8.6689 17.8011 20.3564 -173.8680 -4.9397 -546.1710 0.0000 0.0000 0.0000 -16.7272 1.3681 15.1224 0.2993 3.5175 9.7230 0.4930 -5.6672 -12.5395 0.0024 0.3196 0.8781 0.0000 0.0000 0.0000 13.5946 4.0990 -80.8085 -25.8939 -19.1459 107.4719 -0.0527 8.0798 -6.6921 -0.0034 -0.3770 1.0360 -1.5722 1.3152 13.4926 2.6792 0.8476 5.9065 3.5718 0.0376 -1.4223 -7.3446 2.9623 -10.3825 3.5988 -1.6813 42.5305 2.0860 -3.3773 17.3955 -0.0000 -0.0000 0.0000 -86.4798 3.7273 22.1129 16.9480 -26.7891 -4.0639 -0.0000 0.0000 -4.2022 23.4303 19.5394 8.2471 -7.1250 0.0000 -0.0000 -4.9528 51.0598 -0.7410 -0.0000 -0.0000 0.0000 86.4208 -4.0366 11.4558 -16.1996 25.7905 -3.7324 0.0000 -0.0000 -7.5648 -19.6230 11.6785 -4.1279 7.1250 -0.0000 -0.0000 5.2704 -17.6345 3.4408
8.6819 17.7884 20.3021 -173.5550 -4.7884 -545.8490 0.0000 0.0000 0.0000 -16.3520 1.2610 14.7336 0.3275 3.6783 10.1733 0.5148 -5.8379 -12.8188 0.0009 0.1889 0.5190 0.0000 0.0000 0.0000 13.8757 4.6244 -80.4748 -25.8438 -19.1607 107.3192 -0.0448 8.2474 -6.6472 -0.0127 -0.7288 2.0028 -1.2470 1.2871 13.3715 2.7941 0.8624 5.8306 3.5057 0.0530 -1.4342 -7.3842 2.9607 -10.3124 3.5989 -1.6395 42.4036 2.1022 -3.3540 17.2997 0.0000 -0.0000 0.0000 -86.6021 3.6507 22.3177 16.8076 -26.6035 -4.0008 -0.0000 0.0000 -4.8198 22.9759 18.1482 7.5229 -7.1250 0.0000 -0.0000 -5.0412 49.5104 -0.5619 0.0000 -0.0000 0.0000 86.3412 -3.8409 11.7729 -16.4584 26.1382 -3.8457 0.0000 -0.0000 -7.7404 -19.6623 11.8047 -4.1807 7.1250 -0.0000 -0.0000 5.2456 -17.4987 3.4401
8.6919 17.7790 20.2469 -173.7940 -4.6091 -545.5920 0.0000 0.0000 0.0000 -16.6311 1.1691 14.3576 0.3756 3.9361 10.8971 0.5278 -5.7963 -12.9721 0.0008 -0.1825 -0.5015 0.0000 0.0000 0.0000 13.4942 5.0337 -80.0626 -25.7954 -19.1749 107.1717 -0.0234 8.9300 -6.6871 -0.1217 -2.2492 6.1947 -1.4118 1.3480 13.2859 2.7221 0.9175 5.8907 3.5158 0.0756 -1.3310 -7.3026 2.9146 -10.4707 3.5577 -1.6039 42.2511 2.0806 -3.2991 17.2497 -0.0000 0.0000 0.0000 -86.6895 3.3258 22.1754 16.5876 -26.3109 -3.9028 -0.0000 0.0000 -4.7207 22.9150 17.3816 7.1973 -7.1250 0.0000 -0.0000 -4.9160 48.6878 -0.4482 -0.0000 0.0000 0.0000 86.3341 -3.4721 12.0140 -16.6624 26.4106 -3.9360 0.0000 -0.0000 -7.6582 -19.9468 11.8543 -4.2636 7.1250 -0.0000 -0.0000 5.0479 -17.4224 3.3179
8.7011 17.8064 20.1940 -173.9370 -4.3808 -545.3840 0.0000 0.0000 0.0000 -16.8370 1.0038 13.8713 0.4476 4.2926 11.9013 0.5473 -5.6308 -13.1930 0.0149 -0.7882 -2.1661 0.0000 0.0000 0.0000 13.3113 5.4130 -79.3873 -25.6735 -19.2101 106.8009 -0.0059 10.0844 -7.1680 -0.4219 -4.1689 11.5522 -1.5025 1.3957 13.3865 2.6943 0.9694 5.8687 3.5304 0.1020 -1.4130 -7.3298 2.8932 -10.7013 3.5560 -1.5976 42.3050 2.0871 -3.2959 17.3411 -0.0000 -0.0000 0.0000 -86.7932 3.2070 22.0802 16.5077 -26.2042 -3.8674 -0.0000 0.0000 -4.2850 23.0561 18.1338 7.5462 -7.1250 0.0000 -0.0000 -4.9594 49.5080 -0.5525 -0.0000 -0.0000 0.0000 86.2518 -3.2036 12.4104 -16.8506 26.6604 -4.0201 0.0000 -0.0000 -7.6585 -20.0863 11.9957 -4.3462 7.1250 -0.0000 -0.0000 4.9541 -17.2615 3.2733
8.7171 17.8117 20.1435 -173.6520 -4.3698 -545.0900 0.0000 0.0000 0.0000 -16.5258 0.6151 13.2545 0.5273 4.6535 12.9229 0.5493 -5.7186 -13.2214 0.0183 -0.8742 -2.4027 0.0000 0.0000 0.0000 13.6369 5.6124 -79.0019 -25.6097 -19.2282 106.6070 0.0085 11.4781 -7.9265 -0.7573 -5.5577 15.5062 -1.2886 1.3002 13.6030 2.8676 0.8949 5.6459 3.6020 0.0805 -1.7559 -7.5823 2.9259 -10.7225 3.6361 -1.5707 42.4199 2.1704 -3.3354 17.4121 -0.0000 0.0000 0.0000 -87.0289 3.3448 21.9785 16.4416 -26.1158 -3.8383 -0.0000 0.0000 -3.7860 22.9358 19.3195 7.9693 -7.1250 0.0000 -0.0000 -5.3843 50.7429 -0.7638 -0.0000 0.0000 0.0000 85.9821 -3.1692 12.8927 -17.0380 26.9079 -4.1045 0.0000 -0.0000 -7.8531 -19.5441 12.3868 -4.3545 7.1250 -0.0000 -0.0000 5.3412 -16.8973 3.5739
